<?xml version="1.0" encoding="utf-8"?>
<!-- Generator: Adobe Illustrator 23.0.0, SVG Export Plug-In . SVG Version: 6.00 Build 0)  -->
<svg version="1.1" id="Layer_1" xmlns="http://www.w3.org/2000/svg" xmlns:xlink="http://www.w3.org/1999/xlink" x="0px" y="0px"
	 viewBox="0 0 197.4 78.8" style="enable-background:new 0 0 197.4 78.8;" xml:space="preserve">
<style type="text/css">
	.st0{fill:#A8DFF9;}
	.st1{fill:#183157;}
</style>
<g>
	<path class="st0" d="M138,40.5l-0.6-0.1c-0.1,0-0.2-0.1-0.2-0.3c0.8-7-2.2-14.5-2.8-15.9c0-0.1,0-0.2,0.1-0.3l2.9-0.6
		c0.1,0,0.1-0.1,0-0.1l-1.2-0.1c-0.1,0-0.2-0.1-0.1-0.2l0.3-0.5c0.1-0.1,0-0.2-0.1-0.2l-2.5,0.3c-0.1,0-0.3-0.1-0.3-0.2
		c-2.4-5.4-7.6-10.7-8.6-11.7c-0.1-0.1-0.1-0.2,0-0.3l0.3-0.2c0.1-0.1,0.2-0.2,0.2-0.3l-0.1-0.6c0-0.1-0.2-0.2-0.3-0.2l-1.7,0.2
		c-0.1,0-0.2-0.1-0.2-0.1c0-0.1,0.1-0.2,0.2-0.2l1.1-0.1c0.1,0,0.3-0.1,0.3-0.2l0.1-0.5c0-0.1,0-0.2-0.2-0.2l-0.2,0
		c-0.1,0-0.3-0.1-0.3-0.2l-0.1-0.2c-0.1-0.1-0.2-0.2-0.3-0.1l-1.9,0.6c-0.1,0-0.3,0-0.4-0.1c-4.4-3.6-8.8-4.9-9.8-5.1
		c-0.1,0-0.2-0.2-0.3-0.3l-0.4-2.5c0-0.1-0.1-0.2-0.3-0.1l-4.5,1.7c-0.1,0-0.3,0.1-0.4,0c-9.5-1.5-16.3,0.3-18.7,1.2
		c-0.1,0-0.3,0-0.3-0.1l-0.8-2c0-0.1-0.2-0.2-0.3-0.1c-1.9,0.7-1.9,2.5-1.9,3.1c0,0.1,0,0.3,0.1,0.3c0,0-0.1,0.1-0.2,0.2
		C73.4,9.1,67.2,20.4,66.3,22.1c-0.1,0.1-0.2,0.3-0.3,0.4L64.4,24c-0.1,0.1-0.1,0.1,0,0l1.1-0.7c0.1-0.1,0.1,0,0.1,0.1
		c-5.1,10.6-3.4,23.2-3.1,25.1c0,0.1,0.1,0.3,0.2,0.4c1.1,1.5,1.9,4.8,2.2,5.6c0,0.1,0.1,0.3,0.1,0.4c0.1,0.2,0.2,0.5,0.3,0.7
		c0,0.1,0,0.3-0.1,0.3c-0.8,0.5-1.4,1-2,1.4c-0.1,0.1-0.1,0.1,0,0l2-1.3c0.1-0.1,0.2-0.1,0.2-0.1c0,0-0.1,0.1-0.1,0.2
		c-1.2,1-3.2,2.6-4.5,3.8c-0.1,0.1-0.1,0.1,0,0c0.6-0.5,2.4-1.9,4.6-3.6c0.1-0.1,0.2,0,0.3,0.1c3.5,7.3,11.7,13.7,13,14.7
		c0.1,0.1,0.1,0.2,0,0.2c-1.6,0.9-3.6,3.4-4.2,4.1c-0.1,0.1-0.1,0.1,0,0c0.9-0.9,4-3.2,4.8-3.8c0.1-0.1,0.3-0.1,0.4,0
		c3.4,2.3,9.3,4.5,10.5,4.9c0.1,0,0.1,0.1,0,0.2l-1.4,1c-0.1,0.1-0.1,0.2,0,0.3l0.6,0.5c0.1,0.1,0.3,0.1,0.4,0l2.4-1.5
		c0.1-0.1,0.3-0.1,0.4-0.1c8,1.7,16.5-0.4,16.5-0.4c1.8-0.5,6.1-2.3,6.1-2.3c0.6-0.3,0.6-0.6,0.5-0.8c-0.1-0.1-0.2-0.3-0.1-0.4
		l0-0.3c0-0.1,0.1-0.1,0.1,0l0.3,0.6c0.1,0.1,0.2,0.2,0.3,0.2l0.6-0.1c0.1,0,0.3,0,0.4,0.1l0.3,0.3c0.1,0.1,0.2,0.1,0.3,0
		c1.4-1,9.9-7.4,13.4-12.9c0.1-0.1,0.1-0.1,0,0c-0.7,0.8-4,4.4-9.9,9c-0.1,0.1-0.1,0.1,0,0c0.1-0.1,0.2-0.2,0.3-0.3
		c0.1-0.1,0.2-0.3,0.3-0.3c2.3-2.4,5.3-7.3,5.9-8.3c0.1-0.1,0.1-0.1,0,0c-0.2,0.2-0.5,0.6-0.9,0.9c-0.1,0.1-0.1,0.1,0,0
		c0.3-0.6,0.7-1.1,0.9-1.7c0.1-0.1,0.2-0.2,0.3-0.2c2.1-0.4,4.4-1.1,4.4-1.1c2.8-1.1,1.5-2.4,1-2.8c-0.1-0.1-0.3-0.1-0.4-0.1
		c-1.1,0.2-2.4,0.6-3.9,1.1c-0.1,0-0.2,0-0.2-0.1c0.7-2.6,2-8.3,2.3-12.4c0-0.1,0.1-0.3,0.2-0.3c0.8-0.3,1.3-0.4,1.7-0.5l3.1-0.9
		c0.1,0,0.2,0,0.2,0.2c-0.3,2.1-0.7,3.5-0.9,4c0,0.1,0,0.1,0.1,0c1-1.2,1.3-3.3,1.3-4c0-0.1,0.1-0.2,0.2-0.3l0.5-0.1
		c0.1,0,0.2-0.1,0.2-0.3l0-1c0-0.1-0.1-0.3-0.1-0.4c-0.1-0.1,0-0.2,0.1-0.2l0,0c0.1,0,0.2-0.1,0.3-0.3
		C138.2,40.7,138.1,40.6,138,40.5z M132.5,23c-0.4,0.2-1,0.3-1.5-0.1c-0.1-0.1-0.3-0.1-0.4-0.1c-0.5,0.1-1.6,0.4-3.1,0.8
		c-0.1,0-0.3,0-0.3-0.1c-1.1-2.3-4.1-7.8-7.9-11.2c-0.1-0.1-0.1-0.2,0-0.2l0.7-0.4c0.1-0.1,0.3-0.1,0.4-0.1l1.1,0.1
		c0.1,0,0.3,0,0.4-0.1l0.9-0.5c0.1-0.1,0.3,0,0.4,0c4.9,4.2,8.1,9.4,9.2,11.5C132.7,22.9,132.6,23,132.5,23z M122.8,44.8
		c-0.2-2-1.4-12.1-3.9-15.1c-0.1-0.1-0.1-0.2,0.1-0.3l8.3-3c0.1,0,0.2,0,0.3,0.1c0.2,0.5,0.3,1,0.4,1.6c0,0.1,0.1,0.3,0.1,0.4
		c0.4,1.2,2.4,7.5,2.5,13.4c0,0.1-0.1,0.3-0.2,0.3c-2.7,0.8-5.5,1.8-7.3,2.7C122.9,45,122.8,44.9,122.8,44.8z M112.9,64.2l-5.1-9.6
		c-0.1-0.1,0-0.2,0.1-0.3c2.7-1.3,5.4-2.6,6.4-3.1c0,0,3-1.2,6.7-2.7c0.1,0,0.2,0,0.2,0.1c0.1,1.3,0.2,2.6,0.1,3.9c0,0.1,0,0.1,0,0
		c0.1-0.6,0.4-2.1,0.5-3.6c0-0.1,0-0.1,0,0c0.1,2.7,0.1,7.2-1.1,11.6c0,0.1-0.2,0.3-0.3,0.3c-3.2,1.5-6.1,2.8-7.3,3.5
		C113.1,64.4,113,64.3,112.9,64.2z M101.1,71.6c0.5-0.3,1.2-0.6,2.1-1.1c0.1-0.1,0.3-0.1,0.4,0c1.1,0.5,2.1,0.9,3.2,1.3
		c0.1,0,0.1,0.1,0,0.1c-1.9,0.2-3.8,0.1-5.6-0.2C101,71.8,101,71.7,101.1,71.6z M99.4,71.4c-3.9-1-7-2.6-7.8-3.1
		c-0.1-0.1-0.3-0.1-0.4-0.1c-1.7,0-3.3-0.6-4.7-1.3c-0.1-0.1-0.1-0.2,0-0.2c1.7-1.2,3.8-2.7,5.9-4c0.1-0.1,0.3-0.1,0.4,0
		c4.3,4.1,7.9,6.4,7.9,6.4c0.5,0.3,0.9,0.5,1.4,0.8c0.1,0.1,0.1,0.2,0,0.2c-0.8,0.4-1.5,0.9-2.3,1.3C99.7,71.4,99.5,71.5,99.4,71.4z
		 M88,5.7c0.1-0.1,0.3-0.1,0.5-0.2c0.1,0,0.3-0.1,0.4-0.1c1.3,0.1,3.1,0.3,5.4,1.2c0.1,0,0.1,0.1,0,0.2l-4.1,1.9l-0.8,0.4
		c-0.1,0.1-0.2,0-0.3-0.1l-1.2-3C87.8,5.9,87.9,5.7,88,5.7z M121.7,9.9C121.7,9.9,121.7,9.9,121.7,9.9c0.1,0.1,0.1,0.2,0,0.3
		l-3.2,1.3c-0.1,0-0.3,0-0.4-0.1c-0.1,0-0.1-0.1-0.2-0.1c-0.1-0.1-0.1-0.2,0-0.2l3.3-1.2C121.4,9.8,121.6,9.8,121.7,9.9z
		 M119.8,15.2c1.4,1.3,4.5,4.6,6.5,8.6c0.1,0.1,0,0.2-0.1,0.3c-2.5,0.7-5.5,1.7-8.4,2.9c-0.1,0-0.2,0-0.3-0.1
		c-1.3-3-3.7-7.9-6.4-11.3c-0.1-0.1,0-0.2,0.1-0.3c0.9-0.3,4.8-1.8,5.7-2.1c0.1,0,0.3,0,0.4,0.1c1.7,1.6,4.1,4.2,5.9,7
		c0.1,0.1,0.1,0.1,0,0C122.8,19.5,121.4,16.9,119.8,15.2C119.7,15.1,119.7,15.1,119.8,15.2z M93.4,60.9c-0.1-0.1-0.2-0.2-0.3-0.4
		c-0.1-0.1-0.1-0.2,0-0.3c0.1-0.1,0.2,0,0.3,0.1c0.1,0.1,0.2,0.2,0.3,0.4c0.1,0.1,0.1,0.2,0,0.3C93.6,61.1,93.5,61,93.4,60.9z
		 M94.4,61.6c0.7,0.8,1.3,1.4,1.5,1.7c0.1,0.1,0.1,0.1,0,0c-0.6-0.4-1.2-1-1.8-1.6c-0.1-0.1-0.1-0.2,0-0.2
		C94.2,61.4,94.3,61.5,94.4,61.6z M94.5,60l4-2c0.1-0.1,0.1-0.1,0,0c-0.5,0.3-1.9,1.2-3.7,2.3c-0.1,0.1-0.3,0-0.3,0c0,0,0,0,0,0
		C94.3,60.2,94.4,60.1,94.5,60z M94.1,60c-0.1-0.1,0-0.2,0.1-0.3l10.7-5.7c0.1-0.1,0.1-0.1,0,0l-10.4,6C94.3,60.1,94.2,60,94.1,60z
		 M93.6,59.4c-3.7-4.2-5.9-8.1-6.4-9.1c-0.1-0.1-0.1-0.1,0,0c0.8,2.9,3.5,6.7,5.7,9.4c0.1,0.1,0.1,0.2,0,0.3c-0.1,0.1-0.2,0-0.3-0.1
		c-4-4.7-7.9-11.4-7.9-11.4c-0.5-0.7-0.9-1.6-1.3-2.4c-0.1-0.1,0-0.3,0.1-0.3c3.7-1.9,12.4-6.5,15.5-8c0.1-0.1,0.2,0,0.3,0.1
		l1.5,3.1l5.6,11.2c0.1,0.1,0,0.3-0.1,0.3c-2.8,1.6-8,4.5-12.2,6.9C93.9,59.5,93.7,59.5,93.6,59.4z M81.3,15.2
		c0-0.1,0.2-0.3,0.3-0.3l4.8-2c0.1,0,0.3,0,0.4,0.1c1.2,1.3,2.1,3.3,2.4,3.9c0.1,0.1,0.1,0.3,0.1,0.4c0.1,1.1,0.6,2.5,1.3,3.9
		c0.1,0.1,0,0.3-0.1,0.3c-2.2,1.2-6.3,3.5-10.6,6.1c-0.1,0.1-0.2,0-0.2-0.1c-0.1-1.6-0.1-2.6-0.1-2.6C79.7,21.3,80.4,18,81.3,15.2z
		 M105.3,14.1c-4.4,1.8-8.8,3.8-11.8,5.6c-0.1,0.1-0.2,0-0.3-0.1l-0.1-0.3L90,11.5c0-0.1,0-0.3,0.1-0.3l6.8-3.2
		c0.1-0.1,0.3-0.1,0.4,0c2.4,1.3,5.2,3.1,8,5.9C105.5,13.9,105.4,14,105.3,14.1z M115.2,25.1c-0.2-0.4-0.8-1.3-1.4-2.1
		c-0.1-0.1-0.1-0.1,0,0c0.3,0.4,0.9,1.5,1,2.2c0,0.1,0,0.1-0.1,0c-0.4-0.7-1.6-3.1-2.6-4c-0.1-0.1-0.1,0-0.1,0.1
		c0.4,0.8,2,3.6,3.4,6.4c0.1,0.1,0,0.2-0.1,0.3c-2.9,1.1-10.4,4.1-15.6,6.7c-0.1,0.1-0.2,0-0.3-0.1l-5-12.2c0-0.1,0-0.3,0.1-0.3
		c5-2.3,10.7-4.9,14-6.1c0.1,0,0.3,0,0.4,0.1C110.9,17.7,113.4,20.4,115.2,25.1C115.3,25.2,115.2,25.2,115.2,25.1z M99.7,35.5
		c0-0.1,0-0.2,0.1-0.3c2.3-1,4.5-2,6.1-2.4c0.1,0,0.1,0,0,0c-0.7,0.3-3,1.4-5.9,2.8C99.9,35.7,99.8,35.6,99.7,35.5z M94,21.5
		L94,21.5c-0.1-0.1,0-0.3,0.1-0.3c3.3-1.7,6.4-3.1,8.6-3.8c0.1,0,0.1,0,0,0c-0.9,0.4-4.4,2.2-8.4,4.2C94.2,21.7,94.1,21.6,94,21.5z
		 M91.4,22.8C91.4,22.9,91.4,22.9,91.4,22.8c0.1,0.1,0,0.3-0.1,0.3c-2.2,1.2-4.4,2.3-6.1,3.4c-0.1,0.1-0.1,0.1,0,0
		c0.7-0.3,3.2-1.6,6.3-3.1c0.1-0.1,0.3,0,0.3,0.1c1.1,1.9,2.2,3.5,2.6,4c0.1,0.1,0.2,0.3,0.2,0.4l3.3,7.2c0,0,0,0.1,0.1,0.1
		c0,0.1,0,0.2-0.1,0.2c-1.7,0.9-5.7,2.9-7.7,4.3c-0.1,0.1-0.1,0.1,0,0c0.8-0.4,4.3-2.2,7.9-3.9c0.1-0.1,0.2,0,0.3,0.1l0,0
		c0.1,0.1,0,0.2-0.1,0.3c-5.1,2.4-11.4,5.6-15.4,8.1c-0.1,0.1-0.2,0-0.3-0.1c-1.8-5-2.6-11.2-2.9-15.2c0-0.1,0.1-0.3,0.2-0.3
		c2.7-1.5,6.9-3.9,11.1-6.1C91.2,22.7,91.3,22.7,91.4,22.8z M106.3,52.2l-2.1-5.2c0-0.1,0-0.1,0,0l2.3,5.1c0.1,0.1,0,0.2,0,0.3
		C106.4,52.4,106.4,52.3,106.3,52.2z M106.8,51.9l-6.3-14.6c0-0.1,0-0.2,0.1-0.3c3-1.3,11.9-5.2,15.9-6.7c0.1,0,0.3,0,0.3,0.1
		c0.3,0.6,0.6,1.1,0.8,1.5c0.1,0.1,0.1,0.3,0.2,0.4c0.4,1.2,2.2,6.9,3,13.3c0,0.1-0.1,0.3-0.2,0.3c-2.6,0.9-9.2,3.4-12.6,5.4
		c0,0-0.4,0.2-1,0.6C107,52.1,106.8,52,106.8,51.9z M110.2,14.6C110.2,14.6,110.2,14.6,110.2,14.6c-0.1-0.1-0.1-0.2,0-0.3l5.3-2.3
		c0.1-0.1,0.3,0,0.4,0.1c0,0,0.1,0.1,0.2,0.1c0.1,0.1,0.1,0.2,0,0.2l-5.5,2.2C110.5,14.7,110.3,14.7,110.2,14.6z M108.2,12.7
		c-1.4-1.2-4.3-3.8-8.1-6c-0.1-0.1-0.1-0.1,0-0.2l3.2-1.1c0.1,0,0.3,0,0.4,0c3.2,0.9,6.8,2.4,10.3,5.1c0.1,0.1,0.1,0.2,0,0.2
		c-1.6,0.6-3.5,1.3-5.4,2.1C108.5,12.8,108.3,12.8,108.2,12.7z M97.4,5.2c-0.5-0.3-1.1-0.5-1.6-0.8c-0.1,0-0.1-0.1,0-0.1
		c0.9,0,2,0,3.2,0.2c0.1,0,0.1,0.1,0,0.1l-1.2,0.6C97.7,5.2,97.5,5.2,97.4,5.2z M82.2,12.5c0.9-2.3,1.8-4.1,2.5-5.3
		c0.1-0.1,0.1-0.1,0.2,0c0.4,1.4,0.6,2.6,0.7,3.4c0,0.1-0.1,0.3-0.2,0.3l-3.1,1.6C82.2,12.7,82.2,12.6,82.2,12.5z M78,14.9l-1,0.5
		c-0.1,0.1-0.2,0-0.1-0.1c0.6-1.2,1.2-2.1,1.7-2.9c0.1-0.1,0.2-0.3,0.3-0.3c0,0,0.1-0.1,0.1-0.1c0.1-0.1,0.1-0.1,0.1,0.1
		c-0.3,0.8-0.6,1.7-0.8,2.5C78.2,14.7,78.1,14.8,78,14.9z M75.8,17.7l1.7-0.8c0.1-0.1,0.2,0,0.2,0.1c-1.2,5.2-1.1,9.2-1.1,9.2
		c0.1,1.1,0.2,2.1,0.3,3.1c0,0.1-0.1,0.3-0.2,0.3c-1.9,1.2-3.7,2.5-5.4,3.7c-0.1,0.1-0.2,0-0.2-0.1c0.7-6.2,2.5-11.5,4.4-15.3
		C75.5,17.9,75.6,17.8,75.8,17.7z M71.2,34.5l5.6-3.8c0.1-0.1,0.2,0,0.2,0.1c0.8,6.8,2.4,11.6,3.7,14.8c0,0.1,0,0.3-0.1,0.3
		c-1.4,0.9-4.1,2.6-7,4.4c-0.1,0.1-0.2,0-0.3-0.1c-2.3-6.7-2.5-12.8-2.5-12.8c0-0.9,0.1-1.7,0.1-2.6C71,34.8,71.1,34.6,71.2,34.5z
		 M73.9,51.1C73.9,51.1,73.9,51.1,73.9,51.1c-0.2,0.1-0.3,0.1-0.4,0c0-0.1,0-0.3,0.1-0.3c1.1-0.7,2.4-1.5,3.1-1.9c0.1-0.1,0.1,0,0,0
		c-0.4,0.3-1.4,1-2.5,1.9C74.2,50.9,74.1,51,73.9,51.1z M79.3,47.7c-0.3,0.2-0.9,0.6-1.7,1.1c-0.1,0.1-0.1,0.1,0,0
		C78.3,48.3,78.9,47.9,79.3,47.7C79.4,47.6,79.4,47.6,79.3,47.7z M71.7,52.5c0,0-0.1,0.1-0.2,0.1c-0.9,0.6-1.7,1.2-2.3,1.6
		c-0.1,0.1-0.2,0-0.3-0.1c0,0,0,0,0-0.1c-0.1-0.1,0-0.3,0.1-0.3c0.8-0.6,1.6-1.1,2.3-1.6c0.1-0.1,0.2,0,0.3,0.1
		C71.6,52.4,71.7,52.5,71.7,52.5C71.7,52.5,71.7,52.5,71.7,52.5z M71.8,52.8c0,0-0.1,0.1-0.2,0.2c-0.8,0.7-1.6,1.4-2.1,1.9
		c-0.1,0.1-0.2,0.1-0.3,0c0-0.1-0.1-0.1-0.1-0.2c-0.1-0.1,0-0.2,0.1-0.3c0.4-0.2,1.3-0.7,2.4-1.4C71.7,52.9,71.8,52.8,71.8,52.8z
		 M81.4,47.3c0.9,1.8,1.6,2.8,1.9,3.2c0.1,0.1,0.2,0.3,0.2,0.4c2.1,3.9,4.8,7.3,7.5,10.1c0.1,0.1,0.1,0.2,0,0.3
		c-1,0.6-1.8,1.1-2.4,1.4c-0.1,0.1-0.1,0.1,0,0l2.5-1.3c0.1-0.1,0.3,0,0.4,0.1c0.1,0.2,0.3,0.3,0.5,0.5c0.1,0.1,0.1,0.2,0,0.3
		c-2.1,1.3-4.3,2.7-6.2,4c-0.1,0.1-0.3,0.1-0.4,0c-1.4-0.9-2.4-1.8-2.8-2.2c-0.1-0.1-0.2-0.2-0.3-0.3c-4-3-6.6-7.5-8.2-11.8
		c0-0.1,0-0.3,0.1-0.3c2.7-1.6,5.7-3.4,7.1-4.4C81.2,47.1,81.4,47.1,81.4,47.3z M95.2,60.8c1.8-1.1,3.4-2,4.8-2.6
		c0,0,3.6-1.8,7.2-3.6c0.1-0.1,0.2,0,0.3,0.1l0.1,0.4c0,0.1,0.1,0.3,0.2,0.4l2.7,5.3c0.1,0.1,0,0.1,0,0l-2-3c-0.1-0.1-0.1-0.1,0,0
		l3,5.8c0.1,0.1,0.1,0.3,0.2,0.4l0.1,0.5c0,0.1,0,0.3-0.2,0.3c-1.6,0.7-3.9,1.9-6.3,3.2c-0.1,0.1-0.3,0.1-0.4,0
		c-3.8-1.9-7-4.5-9.6-7.2C95.1,61,95.1,60.9,95.2,60.8z M119.7,8.7c-0.6,0.2-1.8,0.6-3.2,1.1c-0.1,0-0.3,0-0.4-0.1
		c-1.1-1.2-4.1-3.9-9.6-5.3c-0.1,0-0.1-0.1,0-0.1l1.5-0.5c0.1,0,0.3,0,0.4,0c5.4,1.3,9.5,3.6,11.3,4.7
		C119.8,8.6,119.8,8.7,119.7,8.7z M65.7,31.5c-0.4,2.7,0,5.1,0.1,5.9c0,0.1,0,0.1,0.1,0c0.6-8.5,4.4-15.9,5.2-17.2
		c0.1-0.1,0.1-0.2,0.2-0.3c0,0,0,0,0,0.2c-2.2,6.4-2.6,13.3-2.7,15.4c0,0.1-0.1,0.3-0.2,0.4l-3.5,2.9c-0.1,0.1-0.2,0-0.2-0.1
		C64.7,35,65.4,32.3,65.7,31.5C65.7,31.4,65.7,31.4,65.7,31.5z M64.7,38.9l3.4-2.3c0.1-0.1,0.2,0,0.2,0.1
		c-0.5,6.4,1.9,12.7,2.9,14.9c0,0.1,0,0.3-0.1,0.3c-0.8,0.5-1.6,1-2.4,1.5c-0.1,0.1-0.2,0-0.3-0.1c-1.1-2.2-1.7-3.8-1.9-4.3
		c0-0.1-0.1-0.1,0,0c0.2,1.2,0.8,3.1,1.3,4.8c0,0.1,0,0.3-0.1,0.3c0,0,0,0,0,0c-0.1,0.1-0.2,0-0.3-0.1c-2.5-5.4-3-10.7-2.9-14.9
		C64.5,39.2,64.6,39,64.7,38.9z M67.9,54.6C67.9,54.6,67.9,54.6,67.9,54.6c0.1-0.1,0.2,0,0.3,0.1c0.3,0.9,0.6,1.7,0.7,2.1
		c0,0.1,0,0.1,0,0c-0.4-0.6-0.7-1.2-1-1.9C67.7,54.8,67.8,54.7,67.9,54.6z M69.6,54.9c0.3-0.3,1.2-0.9,2.2-1.7
		c0.1-0.1,0.2-0.1,0.3,0.1c4,7.9,9.6,12.7,11.5,14.2c0.1,0.1,0.1,0.2,0,0.3c-0.5,0.4-1,0.7-1.4,1c-0.1,0.1-0.3,0.1-0.4,0
		c-5.9-3.8-9.9-9.2-12.3-13.5C69.4,55.1,69.5,54.9,69.6,54.9z M91.8,73.5c-1.8,0.3-2.9-0.5-3.3-0.8c-0.1-0.1-0.1-0.1,0-0.1
		c1.3,0.5,2.1,0.6,2.4,0.7c0.1,0,0.1,0,0-0.1c-2.7-0.9-7-3.3-7-3.3c-0.3-0.2-0.6-0.3-0.9-0.5c-0.1-0.1-0.1-0.2,0-0.2
		c0.4-0.3,0.8-0.6,1.3-1c0.1-0.1,0.3-0.1,0.4,0c4.2,2.7,8.1,4.3,11.2,5.3c0.1,0,0.1,0.1,0,0.2c-0.3,0.2-0.5,0.3-0.8,0.5
		c-0.1,0.1-0.3,0.1-0.4,0.1l-2.5-0.7C92.1,73.5,91.9,73.5,91.8,73.5z M96.6,74.5c0.1-0.1,0.3-0.3,0.4-0.4c0.1-0.1,0.3-0.1,0.4-0.1
		c2.5,0.7,4.2,0.9,4.8,1c0.1,0,0.2,0,0.3,0c0,0,0,0-0.2,0c-2.3,0.2-4.4-0.1-5.7-0.4C96.5,74.6,96.5,74.5,96.6,74.5z M106.6,69
		c1.9-0.9,3.9-1.8,5.2-2.4c0.1-0.1,0.2,0,0.2,0.1c0,0.1,0.1,0.3,0.2,0.4l1,1.4c0.1,0.1,0.1,0.3,0.1,0.4l0,0.4c0,0.1,0,0.3,0.1,0.4
		l0.7,1.2c0.1,0.1,0,0.2-0.1,0.2c-2.6-0.2-5.1-0.9-7.3-1.8C106.5,69.1,106.5,69,106.6,69z M113.8,65.5c1-0.6,2.8-1.3,4.7-2.1
		c0.1,0,0.2,0,0.2,0.1l-0.7,3.8c0,0.1,0,0.3,0.1,0.4c0.3,0.8-1,1.9-1.7,2.5c-0.1,0.1-0.2,0-0.3-0.1l-2.3-4.3
		C113.7,65.7,113.7,65.6,113.8,65.5z M122.7,65.8c-0.7,0.6-1.3,1.1-1.6,1.3c-0.1,0.1-0.2,0.2-0.2,0.4v0c0,0.1-0.1,0.3-0.2,0.4
		c-0.1,0.1-0.3,0.3-0.4,0.4c-0.1,0.1-0.2,0.2-0.4,0.3c-0.3,0.2-0.5,0.3-0.7,0.4c-0.1,0.1-0.2,0-0.1-0.1c0.8-2.1,1.4-4.9,1.7-6.3
		c0-0.1,0.1-0.3,0.3-0.3c2-0.8,3.7-1.4,4.3-1.6c0.1,0,0.3-0.1,0.4-0.1c0.1,0,0.2,0,0.3,0c0.1,0,0.2,0.1,0.1,0.2
		c-0.7,1.2-1.8,2.9-3.3,4.7C122.9,65.6,122.8,65.7,122.7,65.8z M127.7,57.9c-1.9,0.7-4,1.6-6,2.5c-0.1,0.1-0.2,0-0.2-0.1
		c0.4-2.3,1.5-8.2,1.6-12.3c0-0.1,0.1-0.3,0.2-0.3c2.5-1,5.1-2,7-2.7c0.1,0,0.2,0,0.2,0.2c-0.2,2.8-0.8,8-2.5,12.5
		C127.9,57.7,127.8,57.8,127.7,57.9z M131.2,41.8c-0.2-3.5-0.8-11.9-2.4-15.7c0-0.1,0-0.2,0.1-0.3l4.4-1.4c0.1,0,0.3,0,0.3,0.1
		c2.8,6,3.3,11.5,3.1,15.7c0,0.1-0.1,0.3-0.2,0.3c-0.8,0.2-2.8,0.7-5.1,1.4C131.3,42,131.2,41.9,131.2,41.8z"/>
	<path class="st1" d="M0.2,47.7v-2.9h12.3c0.8,0,1.4-0.2,1.8-0.6c0.4-0.4,0.6-0.9,0.6-1.6c0-0.7-0.2-1.2-0.6-1.6
		c-0.4-0.4-1-0.5-1.8-0.5H5c-0.8,0-1.5-0.1-2.1-0.3c-0.6-0.2-1.2-0.6-1.6-1c-0.4-0.4-0.8-0.9-1-1.5C0.1,37.2,0,36.6,0,35.9
		c0-0.7,0.1-1.3,0.3-1.8c0.2-0.6,0.5-1.1,1-1.5c0.4-0.4,1-0.7,1.6-1c0.6-0.2,1.4-0.3,2.2-0.3h11.8v2.9H5.1c-0.7,0-1.2,0.2-1.5,0.5
		C3.2,35,3,35.5,3,36.2c0,0.6,0.2,1.1,0.6,1.5C3.9,38,4.4,38.1,5,38.1h7.5c1.7,0,2.9,0.4,3.8,1.2c0.9,0.8,1.3,2,1.3,3.6
		c0,0.7-0.1,1.3-0.3,1.9c-0.2,0.6-0.5,1.1-0.9,1.5c-0.4,0.4-1,0.8-1.6,1c-0.6,0.2-1.4,0.4-2.2,0.4H0.2z"/>
	<polygon class="st1" points="20.1,47.7 20.1,31.3 34.8,31.3 34.8,34.1 23,34.1 23,44.8 34.8,44.8 34.8,47.7 	"/>
	<rect x="25.1" y="38.1" class="st1" width="9.1" height="2.4"/>
	<path class="st1" d="M52.5,47.7l-4.2-4.6h-6.1v-2.5h6.8c1,0,1.8-0.3,2.4-0.8c0.5-0.6,0.8-1.4,0.8-2.5c0-1.1-0.3-1.9-0.8-2.4
		c-0.6-0.5-1.3-0.8-2.3-0.8h-8.9v13.6h-2.8V31.3h11.8c0.9,0,1.8,0.1,2.5,0.4c0.7,0.3,1.4,0.7,1.9,1.2c0.5,0.5,0.9,1.1,1.2,1.9
		c0.3,0.7,0.4,1.6,0.4,2.5c0,1.4-0.3,2.5-0.9,3.4c-0.6,0.9-1.4,1.6-2.5,2l4.9,5H52.5z"/>
	<path class="st1" d="M55.1,31.3h3.5L66,43.9l7.4-12.7h3.3L67.3,47c-0.2,0.3-0.4,0.5-0.6,0.7c-0.2,0.2-0.5,0.2-0.8,0.2
		c-0.3,0-0.6-0.1-0.8-0.2c-0.2-0.2-0.4-0.4-0.6-0.7L55.1,31.3z"/>
	<rect x="78.7" y="31.3" class="st1" width="2.9" height="16.4"/>
	<path class="st1" d="M87.2,35.7v12h-2.7V32.8c0-0.5,0.1-0.9,0.4-1.3s0.6-0.5,1.1-0.5c0.2,0,0.4,0,0.6,0.1c0.2,0.1,0.4,0.2,0.6,0.5
		l11.6,11.5v-12h2.7v15c0,0.5-0.1,1-0.4,1.3s-0.6,0.5-1,0.5c-0.5,0-0.9-0.2-1.3-0.6L87.2,35.7z"/>
	<path class="st1" d="M111.8,47.7c-1.1,0-2.2-0.2-3.2-0.6c-1-0.4-1.8-1-2.5-1.8c-0.7-0.7-1.3-1.6-1.7-2.7c-0.4-1-0.6-2.1-0.6-3.3
		c0-1.2,0.2-2.3,0.6-3.3c0.4-1,1-1.8,1.7-2.5c0.7-0.7,1.6-1.2,2.5-1.6c1-0.4,2-0.6,3.2-0.6h8.9v2.9h-8.9c-0.7,0-1.4,0.1-2,0.4
		c-0.6,0.3-1.2,0.6-1.6,1.1c-0.5,0.5-0.8,1-1.1,1.7c-0.3,0.6-0.4,1.4-0.4,2.1c0,0.8,0.1,1.5,0.4,2.1c0.3,0.7,0.6,1.2,1.1,1.7
		c0.5,0.5,1,0.8,1.6,1.1c0.6,0.3,1.3,0.4,2,0.4h7v-4.3h-7.4v-2.4h10.3v9.6H111.8z"/>
	<rect x="124.5" y="31.3" width="2.9" height="16.4"/>
	<path d="M133,35.7v12h-2.7V32.8c0-0.5,0.1-0.9,0.4-1.3s0.6-0.5,1.1-0.5c0.2,0,0.4,0,0.6,0.1s0.4,0.2,0.6,0.5l11.6,11.5v-12h2.7v15
		c0,0.5-0.1,1-0.4,1.3c-0.3,0.3-0.6,0.5-1,0.5c-0.5,0-0.9-0.2-1.3-0.6L133,35.7z"/>
	<polygon points="155.4,47.7 155.4,34.1 149.1,34.1 149.1,31.3 164.5,31.3 164.5,34.1 158.2,34.1 158.2,47.7 	"/>
	<polygon points="166.4,47.7 166.4,31.3 181,31.3 181,34.1 169.2,34.1 169.2,44.8 181.1,44.8 181.1,47.7 	"/>
	<rect x="171.3" y="38.1" width="9.1" height="2.4"/>
	<polygon points="183.5,47.7 183.5,31.3 186.4,31.3 186.4,44.8 197.4,44.8 197.4,47.7 	"/>
</g>
</svg>
